<mxfile host="Electron" modified="2025-03-04T06:29:01.197Z" agent="Mozilla/5.0 (Windows NT 10.0; Win64; x64) AppleWebKit/537.36 (KHTML, like Gecko) draw.io/24.2.5 Chrome/120.0.6099.109 Electron/28.1.0 Safari/537.36" etag="L5m8bSWWXPdhRcBbU0kf" version="24.2.5" type="device">
  <diagram name="第 1 页" id="8p8tp5tCfvte4XFlLQSZ">
    <mxGraphModel dx="1084" dy="806" grid="0" gridSize="10" guides="1" tooltips="1" connect="1" arrows="1" fold="1" page="1" pageScale="1" pageWidth="1169" pageHeight="827" math="0" shadow="0">
      <root>
        <mxCell id="0" />
        <mxCell id="1" parent="0" />
      </root>
    </mxGraphModel>
  </diagram>
</mxfile>
